{
  "accessors": [
    {
      "bufferView": 2,
      "componentType": 5126,
      "count": 3818,
      "max": [
        0.9958000183105469,
        0.9958000183105469,
        1.6172399520874023
      ],
      "min": [
        -0.9958000183105469,
        -1.7170699834823608,
        -0.4213300049304962
      ],
      "type": "VEC3"
    },
    {
      "bufferView": 2,
      "byteOffset": 45816,
      "componentType": 5126,
      "count": 3818,
      "max": [
        0.9999995827674866,
        0.999999463558197,
        1.0
      ],
      "min": [
        -0.9999995827674866,
        -0.9999995827674866,
        -0.9994733929634094
      ],
      "type": "VEC3"
    },
    {
      "bufferView": 1,
      "componentType": 5126,
      "count": 3818,
      "max": [
        0.8526999950408936,
        0.9998800158500671
      ],
      "min": [
        0.00011999999696854502,
        0.00011999999696854502
      ],
      "type": "VEC2"
    },
    {
      "bufferView": 0,
      "componentType": 5125,
      "count": 21282,
      "type": "SCALAR"
    }
  ],
  "asset": {
    "extras": {
      "author": "Christian Gentry (https://sketchfab.com/christianjgentry)",
      "license": "CC-BY-4.0 (http://creativecommons.org/licenses/by/4.0/)",
      "source": "https://sketchfab.com/3d-models/worlds-best-boss-mug-b46c1630ac9a406688e36a4b798cab75",
      "title": "World's Best Boss Mug"
    },
    "generator": "Sketchfab-12.67.0",
    "version": "2.0"
  },
  "bufferViews": [
    {
      "buffer": 0,
      "byteLength": 85128,
      "name": "floatBufferViews",
      "target": 34963
    },
    {
      "buffer": 0,
      "byteLength": 30544,
      "byteOffset": 85128,
      "byteStride": 8,
      "name": "floatBufferViews",
      "target": 34962
    },
    {
      "buffer": 0,
      "byteLength": 91632,
      "byteOffset": 115672,
      "byteStride": 12,
      "name": "floatBufferViews",
      "target": 34962
    }
  ],
  "buffers": [
    {
      "byteLength": 207304,
      "uri": "scene.bin"
    }
  ],
  "images": [
    {
      "uri": "textures/material_baseColor.png"
    },
    {
      "uri": "textures/material_metallicRoughness.png"
    }
  ],
  "materials": [
    {
      "name": "material",
      "pbrMetallicRoughness": {
        "baseColorTexture": {
          "index": 0
        },
        "metallicFactor": 0.0,
        "metallicRoughnessTexture": {
          "index": 1
        },
        "roughnessFactor": 0.1602515243902439
      }
    }
  ],
  "meshes": [
    {
      "name": "Mug_0",
      "primitives": [
        {
          "attributes": {
            "NORMAL": 1,
            "POSITION": 0,
            "TEXCOORD_0": 2
          },
          "indices": 3,
          "material": 0,
          "mode": 4
        }
      ]
    }
  ],
  "nodes": [
    {
      "children": [
        1
      ],
      "matrix": [
        0.056441523134708405,
        0.0,
        0.0,
        0.0,
        0.0,
        1.2532535705813342e-17,
        -0.056441523134708405,
        0.0,
        0.0,
        0.056441523134708405,
        1.2532535705813342e-17,
        0.0,
        0.0,
        0.0,
        0.0,
        1.0
      ],
      "name": "Sketchfab_model"
    },
    {
      "children": [
        2
      ],
      "name": "Root"
    },
    {
      "children": [
        3
      ],
      "matrix": [
        1.0,
        0.0,
        0.0,
        0.0,
        0.0,
        1.0,
        0.0,
        0.0,
        0.0,
        0.0,
        1.0,
        0.0,
        0.0,
        0.0,
        0.4228100000000001,
        1.0
      ],
      "name": "Mug"
    },
    {
      "mesh": 0,
      "name": "Mug_0"
    }
  ],
  "samplers": [
    {
      "magFilter": 9729,
      "minFilter": 9987,
      "wrapS": 10497,
      "wrapT": 10497
    }
  ],
  "scene": 0,
  "scenes": [
    {
      "name": "Sketchfab_Scene",
      "nodes": [
        0
      ]
    }
  ],
  "textures": [
    {
      "sampler": 0,
      "source": 0
    },
    {
      "sampler": 0,
      "source": 1
    }
  ]
}
